<?xml version="1.0" encoding="UTF-8" standalone="no"?>
<svg
   xmlns:dc="http://purl.org/dc/elements/1.1/"
   xmlns:cc="http://creativecommons.org/ns#"
   xmlns:rdf="http://www.w3.org/1999/02/22-rdf-syntax-ns#"
   xmlns:svg="http://www.w3.org/2000/svg"
   xmlns="http://www.w3.org/2000/svg"
   xmlns:sodipodi="http://sodipodi.sourceforge.net/DTD/sodipodi-0.dtd"
   xmlns:inkscape="http://www.inkscape.org/namespaces/inkscape"
   width="44.312698mm"
   height="26.600079mm"
   viewBox="0 0 44.312698 26.600079"
   version="1.1"
   id="svg8"
   inkscape:version="1.0.1 (0767f8302a, 2020-10-17)"
   sodipodi:docname="converttype_logo_negativo.svg"
   inkscape:export-filename="/home/getteli/Downloads/converttype_logo_negativo.png"
   inkscape:export-xdpi="193.74136"
   inkscape:export-ydpi="193.74136">
  <defs
     id="defs2">
    <clipPath
       clipPathUnits="userSpaceOnUse"
       id="clipPath1143">
      <path
         id="path1145"
         style="fill:#ff0000;fill-opacity:1;fill-rule:nonzero;stroke:none;stroke-width:0.264583"
         d="M -5.4338116,75.664042 V 107.58551 H 199.26966 V 75.664042 h -17.70944 l 0.59307,0.414582 c -0.0624,0.07637 -0.13114,0.147658 -0.20037,0.218727 -0.0687,0.07012 -0.13879,0.139482 -0.20844,0.208782 -0.081,0.0802 -0.16185,0.160325 -0.24335,0.240101 -0.10265,0.09996 -0.20621,0.199279 -0.3105,0.297764 -0.10665,0.100552 -0.21428,0.200033 -0.32179,0.299755 -0.0451,0.04196 -0.0906,0.08353 -0.13591,0.125268 l 0.47435,0.423534 c -0.0882,0.08458 -0.1761,0.169357 -0.26592,0.252526 -0.0353,0.03296 -0.071,0.06552 -0.10636,0.09843 0.094,0.07075 0.18808,0.141511 0.28203,0.212264 0.16347,0.123046 0.32693,0.245868 0.49046,0.368848 l 0.08,0.06015 -1.02391,1.166203 c 0.0481,0.02602 0.0964,0.05201 0.14504,0.07705 0.0109,0.0057 0.0478,0.02459 0.0349,0.01988 l -1.2952,2.595376 v 0.350956 c -0.0505,9.4e-5 -0.10053,-0.0023 -0.15095,-0.0045 -0.0312,-0.0013 -0.0623,-0.002 -0.0935,-0.003 -0.10758,-0.0037 -0.215,-0.01372 -0.32179,-0.02585 -0.0993,-0.01176 -0.19799,-0.02699 -0.29654,-0.04275 -0.10567,-0.01685 -0.2105,-0.03738 -0.31533,-0.05816 -0.10353,-0.02087 -0.20684,-0.04301 -0.30997,-0.06562 -0.1039,-0.02273 -0.20707,-0.04707 -0.3105,-0.07158 -0.0998,-0.02403 -0.19964,-0.04875 -0.29923,-0.07357 -0.12674,-0.03112 -0.25141,-0.06828 -0.37604,-0.105884 -0.13432,-0.04087 -0.26708,-0.08536 -0.39968,-0.130738 -0.12924,-0.0447 -0.25822,-0.09083 -0.38678,-0.137199 -0.12007,-0.04339 -0.24001,-0.08698 -0.35993,-0.130741 -0.10405,0.07382 -0.21059,0.145195 -0.32769,0.200333 -0.0249,0.01222 -0.0498,0.02398 -0.0747,0.03629 -0.0179,0.0088 -0.0358,0.01759 -0.0537,0.02635 -0.0186,0.0092 -0.0371,0.01888 -0.0559,0.02784 -0.0347,0.01654 -0.0697,0.03267 -0.10529,0.04772 l -0.33897,-0.686498 c -0.0231,-0.0083 -0.0462,-0.01654 -0.0693,-0.02487 -0.0716,-0.02569 -0.0358,-0.0126 -0.10744,-0.03828 l 0.0666,-0.159073 -0.0811,-0.16454 c -0.23412,0.104938 -0.46853,0.209233 -0.70319,0.313175 -0.0429,0.01901 -0.086,0.03816 -0.12893,0.05716 l -1.35322,-2.618239 c 0.0427,-0.01888 0.0851,-0.03779 0.12786,-0.05667 0.25737,-0.114003 0.51475,-0.2281 0.77142,-0.343498 0.21835,-0.09848 0.4356,-0.199386 0.65163,-0.302239 -0.0686,-0.06342 -0.13718,-0.126782 -0.20575,-0.190391 l 0.1155,-0.106876 -0.62907,-1.014588 c 0.0976,-0.05181 0.19487,-0.104296 0.29224,-0.156586 -0.0388,-0.0268 -0.078,-0.05291 -0.11657,-0.08004 -0.14289,-0.101323 -0.2847,-0.204583 -0.42171,-0.312676 -0.12983,-0.103257 -0.25732,-0.208836 -0.37711,-0.322124 -0.10182,-0.09625 -0.20108,-0.195153 -0.29224,-0.300248 -0.0897,-0.102522 -0.17747,-0.207111 -0.2498,-0.321129 l 0.16653,-0.09097 h -20.23914 c 0.0882,0.04523 0.17629,0.09083 0.26431,0.136204 0.10434,0.05387 0.20842,0.107498 0.31265,0.16156 0.10082,0.05236 0.20172,0.105108 0.30245,0.157581 0.10769,0.05655 0.21523,0.113777 0.31856,0.176968 0.0672,0.04044 0.13406,0.08094 0.20091,0.121792 0.0729,0.04452 0.14584,0.08928 0.21811,0.134713 0.0806,0.05107 0.16015,0.102812 0.23905,0.15609 0.0723,0.04859 0.14455,0.09766 0.2165,0.146647 0.0745,0.05081 0.14849,0.102072 0.2224,0.153604 0.069,0.04795 0.13812,0.09597 0.20736,0.143664 0.075,0.05164 0.15032,0.102947 0.22455,0.155591 0.0442,0.03189 0.1769,0.127068 0.13054,0.09793 l -0.51196,0.590557 c 0.12678,0.05025 0.25245,0.102815 0.38035,0.150623 l -1.17541,2.690321 c -0.25579,-0.09579 -0.51019,-0.195052 -0.76121,-0.301244 l -0.46092,2.094294 c -0.0399,-0.0067 -0.0792,-0.0153 -0.11873,-0.02336 -0.0722,-0.01581 -0.14358,-0.03348 -0.21541,-0.0507 -0.10731,-0.0256 -0.21372,-0.05489 -0.31964,-0.08501 -0.12957,-0.03708 -0.25787,-0.07793 -0.38571,-0.119801 -0.13726,-0.04494 -0.27304,-0.09403 -0.40774,-0.145153 -0.13795,-0.0524 -0.27387,-0.108852 -0.40881,-0.167526 -0.15505,-0.06711 -0.30569,-0.142165 -0.45394,-0.22121 -0.0493,-0.02667 -0.0969,-0.05566 -0.14504,-0.08401 l -0.90734,1.390893 c -0.0221,-0.01222 0.017,0.0096 -0.008,-0.004 -0.0238,-0.0125 -0.0494,-0.02733 -0.0731,-0.04076 -0.0524,-0.03011 -0.10211,-0.06365 -0.15149,-0.09793 -0.0197,-0.01405 -0.032,-0.02281 -0.0424,-0.02983 -0.0548,-0.03723 -0.10789,-0.07744 -0.16008,-0.117815 -0.0499,-0.03921 -0.098,-0.08023 -0.14666,-0.120794 -0.0293,-0.02456 -0.0602,-0.04742 -0.0908,-0.07059 -0.0852,-0.06342 -0.167,-0.130155 -0.24819,-0.197846 -0.0878,-0.07338 -0.17421,-0.148752 -0.25893,-0.225189 -0.0933,-0.08456 -0.18271,-0.172725 -0.27129,-0.261475 -0.0906,-0.09049 -0.17791,-0.183458 -0.2643,-0.277385 -0.0789,-0.08634 -0.15764,-0.173145 -0.2353,-0.26048 -0.0936,-0.104362 -0.18245,-0.211677 -0.26967,-0.320633 -0.0863,-0.108905 -0.17054,-0.219531 -0.25517,-0.329578 -0.0922,-0.119728 -0.18357,-0.239699 -0.27505,-0.359902 -0.0941,-0.123474 -0.18828,-0.247174 -0.28203,-0.370839 -0.0462,-0.06095 -0.0919,-0.121936 -0.13806,-0.182934 l 0.57373,-0.371833 c -0.0985,-0.05916 -0.19797,-0.11689 -0.29546,-0.177467 -0.17163,-0.106925 -0.34188,-0.215899 -0.51142,-0.325601 -0.15918,-0.103252 -0.31751,-0.20721 -0.4765,-0.310691 -0.0257,-0.01667 -0.0517,-0.03303 -0.0774,-0.04971 l 1.07226,-1.410778 c -0.0622,-0.04222 -0.12522,-0.08329 -0.18641,-0.126762 -0.1232,-0.0889 -0.24422,-0.180613 -0.35939,-0.278378 -0.0972,-0.08209 -0.19293,-0.165876 -0.28149,-0.256008 -0.0666,-0.06731 -0.13283,-0.135026 -0.19447,-0.206296 -0.0323,-0.03824 -0.0641,-0.07701 -0.0956,-0.115826 -0.0123,-0.01428 -0.0284,-0.03271 -0.043,-0.04822 -0.0184,-0.01988 -0.0369,-0.03973 -0.0559,-0.05916 -0.034,-0.0349 -0.0681,-0.06957 -0.10099,-0.105385 -0.0813,-0.08816 -0.005,-0.0044 0.0338,0.02983 l 0.40505,-0.38078 z m 154.8150116,0 c 0.10151,0.05675 0.20542,0.109625 0.30836,0.164043 l 0.0628,-0.164043 z" />
    </clipPath>
  </defs>
  <sodipodi:namedview
     id="base"
     pagecolor="#ffffff"
     bordercolor="#666666"
     borderopacity="1.0"
     inkscape:pageopacity="0.0"
     inkscape:pageshadow="2"
     inkscape:zoom="4"
     inkscape:cx="73.121825"
     inkscape:cy="45.470865"
     inkscape:document-units="mm"
     inkscape:current-layer="g34"
     inkscape:document-rotation="0"
     showgrid="false"
     fit-margin-top="0"
     fit-margin-left="0"
     fit-margin-right="0"
     fit-margin-bottom="0"
     inkscape:window-width="1366"
     inkscape:window-height="704"
     inkscape:window-x="0"
     inkscape:window-y="27"
     inkscape:window-maximized="1" />
  <metadata
     id="metadata5">
    <rdf:RDF>
      <cc:Work
         rdf:about="">
        <dc:format>image/svg+xml</dc:format>
        <dc:type
           rdf:resource="http://purl.org/dc/dcmitype/StillImage" />
        <dc:title></dc:title>
      </cc:Work>
    </rdf:RDF>
  </metadata>
  <g
     inkscape:label="Layer 1"
     inkscape:groupmode="layer"
     id="layer1"
     transform="translate(-99.366168,-69.891589)">
    <text
       xml:space="preserve"
       style="font-style:normal;font-weight:normal;font-size:10.5833px;line-height:1.25;font-family:sans-serif;fill:#000000;fill-opacity:1;stroke:none;stroke-width:0.264583"
       x="-24.639114"
       y="102.77108"
       id="text12"><tspan
         sodipodi:role="line"
         id="tspan10"
         x="-24.639114"
         y="102.77108"
         style="stroke-width:0.264583" /></text>
    <g
       id="g1171"
       style="fill:#0055ff;fill-opacity:1;stroke-width:1;stroke-miterlimit:4;stroke-dasharray:none"
       transform="translate(-1.3863266,-10.101976)">
      <g
         id="g34">
        <text
           xml:space="preserve"
           style="font-style:normal;font-weight:normal;font-size:50.0958px;line-height:1.25;font-family:sans-serif;letter-spacing:1.13771px;fill:#0055ff;fill-opacity:1;stroke:none;stroke-width:1;stroke-miterlimit:4;stroke-dasharray:none"
           x="-7.806572"
           y="106.99825"
           id="text20"
           transform="matrix(0.99416935,0,0,1.0395519,0.17505986,0)"
           clip-path="url(#clipPath1143)"><tspan
             sodipodi:role="line"
             id="tspan18"
             x="-7.806572"
             y="106.99825"
             style="font-style:normal;font-variant:normal;font-weight:normal;font-stretch:normal;font-family:Uroob;-inkscape-font-specification:Uroob;fill:#0055ff;fill-opacity:1;stroke:none;stroke-width:1;stroke-miterlimit:4;stroke-dasharray:none" /></text>
        <text
           xml:space="preserve"
           style="font-style:normal;font-weight:normal;font-size:42.5269px;line-height:1.25;font-family:sans-serif;mix-blend-mode:color;fill:#ffffff;fill-opacity:1;stroke:none;stroke-width:1.06317;"
           x="98.738281"
           y="106.59364"
           id="text24"><tspan
             sodipodi:role="line"
             id="tspan22"
             x="98.738281"
             y="106.59364"
             style="font-style:normal;font-variant:normal;font-weight:normal;font-stretch:normal;font-family:Uroob;-inkscape-font-specification:Uroob;fill:#ffffff;fill-opacity:1;stroke-width:1.06317;">C T</tspan></text>
        <path
           sodipodi:type="star"
           style="fill:#b3b3b3;fill-opacity:1;stroke-width:1"
           id="path857"
           sodipodi:sides="3"
           sodipodi:cx="121.16041"
           sodipodi:cy="89.268021"
           sodipodi:r1="10.930244"
           sodipodi:r2="5.4651217"
           sodipodi:arg1="-0.02488636"
           sodipodi:arg2="1.0223112"
           inkscape:flatsided="false"
           inkscape:rounded="0"
           inkscape:randomized="0"
           d="m 132.08727,88.996035 -8.07737,4.935458 -8.07738,4.935459 -0.23554,-9.462938 -0.23555,-9.462939 8.31292,4.52748 z"
           transform="matrix(1.1076214,0.03084459,-0.02761132,1.2196062,-9.6897563,-17.6922)" />
      </g>
    </g>
  </g>
</svg>
